<svg xmlns="http://www.w3.org/2000/svg" version="1.1" xmlns:xlink="http://www.w3.org/1999/xlink" width="64" height="64"><svg width="64" height="64" viewBox="0 0 64 64" xmlns="http://www.w3.org/2000/svg" role="img" aria-label="PensionPilot">
  <defs>
    <linearGradient id="SvgjsLinearGradient1001" x1="0" x2="0" y1="0" y2="1">
      <stop offset="0%" stop-color="#FFE082"></stop>
      <stop offset="60%" stop-color="#FFC107"></stop>
      <stop offset="100%" stop-color="#FF9800"></stop>
    </linearGradient>
  </defs>
  <!-- Background -->
  <rect width="64" height="64" rx="12" ry="12" fill="#0d6efd"></rect>

  <!-- Coin stack (bottom-left) -->
  <g transform="translate(8,30)">
    <!-- Back coin -->
    <g transform="translate(18,-8)">
      <ellipse cx="8" cy="6" rx="8" ry="3.2" fill="url(#gold)"></ellipse>
      <rect x="0" y="6" width="16" height="6" fill="url(#gold)"></rect>
      <ellipse cx="8" cy="12" rx="8" ry="3.2" fill="#FFB300"></ellipse>
      <ellipse cx="8" cy="6" rx="8" ry="3.2" fill="none" stroke="#8A5A00" stroke-width="1" opacity=".5"></ellipse>
    </g>
    <!-- Middle coin -->
    <g transform="translate(8,-2)">
      <ellipse cx="8" cy="6" rx="8" ry="3.2" fill="url(#gold)"></ellipse>
      <rect x="0" y="6" width="16" height="6" fill="url(#gold)"></rect>
      <ellipse cx="8" cy="12" rx="8" ry="3.2" fill="#FFB300"></ellipse>
      <ellipse cx="8" cy="6" rx="8" ry="3.2" fill="none" stroke="#8A5A00" stroke-width="1" opacity=".5"></ellipse>
    </g>
    <!-- Front coin -->
    <g transform="translate(0,4)">
      <ellipse cx="8" cy="6" rx="8" ry="3.2" fill="url(#gold)"></ellipse>
      <rect x="0" y="6" width="16" height="6" fill="url(#gold)"></rect>
      <ellipse cx="8" cy="12" rx="8" ry="3.2" fill="#FFB300"></ellipse>
      <ellipse cx="8" cy="6" rx="8" ry="3.2" fill="none" stroke="#8A5A00" stroke-width="1" opacity=".5"></ellipse>
    </g>
  </g>

  <!-- Paper plane (top-right) -->
  <g transform="translate(0,0) rotate(-12 44 20)">
    <path d="M12 24 L56 12 L40 30 L56 36 L28 40 Z" fill="#FFFFFF" fill-opacity="0.98"></path>
    <path d="M12 24 L40 30 L28 40 Z" fill="#CFE3FF" opacity="0.6"></path>
  </g>
</svg><style>@media (prefers-color-scheme: light) { :root { filter: none; } }
@media (prefers-color-scheme: dark) { :root { filter: none; } }
</style></svg>